<?xml version="1.0" encoding="UTF-8"?>
<!DOCTYPE svg PUBLIC "-//W3C//DTD SVG 1.1//EN" "http://www.w3.org/Graphics/SVG/1.1/DTD/svg11.dtd">
<!-- Creator: CorelDRAW 2021 (64-Bit) -->
<svg xmlns="http://www.w3.org/2000/svg" xml:space="preserve" width="1.9685in" height="1.9685in" version="1.1" style="shape-rendering:geometricPrecision; text-rendering:geometricPrecision; image-rendering:optimizeQuality; fill-rule:evenodd; clip-rule:evenodd"
viewBox="0 0 1968.5 1968.5"
 xmlns:xlink="http://www.w3.org/1999/xlink"
 xmlns:xodm="http://www.corel.com/coreldraw/odm/2003">
 <defs>
  <style type="text/css">
   <![CDATA[
    .fil1 {fill:#FDC56A}
    .fil0 {fill:#DE7B32}
    .fil2 {fill:#C95C31}
   ]]>
  </style>
 </defs>
 <g id="Layer_x0020_1">
  <metadata id="CorelCorpID_0Corel-Layer"/>
  <g id="_2733966734576">
   <path class="fil0" d="M804.52 1140.43l809.38 434.39c20.82,11.19 45.45,12.05 66.97,2.38 21.52,-9.68 37.58,-28.86 43.66,-52.11l236.47 -904.61c18.01,-68.96 -13.02,-141.5 -74.72,-174.61l-809.38 -434.41c-20.82,-11.17 -45.45,-12.03 -66.97,-2.37 -21.52,9.68 -37.58,28.84 -43.66,52.11l-236.47 904.61c-18.02,68.96 13.02,141.5 74.71,174.61z"/>
   <path class="fil1" d="M597.57 1000.29l237.8 -909.71c5.92,-22.65 -1.36,-46.8 -18.71,-62.07 -17.37,-15.29 -41.73,-19.02 -62.7,-9.59l-432.59 194.49c-41.37,18.61 -72.26,55.46 -83.96,100.2l-237.8 909.71c-5.92,22.67 1.36,46.8 18.71,62.07 17.37,15.3 41.73,19.02 62.69,9.61l432.59 -194.51c41.37,-18.59 72.26,-55.46 83.96,-100.2z"/>
   <path class="fil2" d="M939.07 1953.51c40.03,21.49 87.42,23.16 128.79,4.57l432.58 -194.49c20.96,-9.43 34.79,-30.33 35.58,-53.78 0.79,-23.43 -11.59,-45.27 -31.87,-56.15l-813.94 -436.87c-40.03,-21.47 -87.42,-23.16 -128.79,-4.55l-432.58 194.49c-20.96,9.43 -34.79,30.33 -35.58,53.78 -0.79,23.43 11.61,45.27 31.87,56.15l813.94 436.85z"/>
  </g>
 </g>
</svg>
